<svg width="567" height="128" viewBox="0 0 567 128" fill="none" xmlns="http://www.w3.org/2000/svg">
  <path d="M166.843 105.391C166.843 109.871 165.303 113.258 162.222 115.555C159.155 117.852 155.403 119 150.967 119H148.784C148.128 119 147.172 118.964 145.917 118.893C144.662 118.807 143.784 118.765 143.285 118.765C142.443 118.765 141.702 118.786 141.06 118.829C140.418 118.857 139.598 118.922 138.599 119.021V118.722C138.941 118.579 139.227 118.422 139.455 118.251C139.698 118.066 139.947 117.809 140.204 117.481C140.461 117.138 140.639 116.703 140.739 116.176C140.853 115.634 140.91 115.198 140.91 114.87L140.889 96.747C140.889 96.4475 140.839 96.0552 140.739 95.5702C140.639 95.0709 140.475 94.6786 140.247 94.3933C140.018 94.108 139.79 93.8655 139.562 93.6658C139.348 93.4661 139.177 93.3377 139.048 93.2807V93.0025H152.422C156.744 93.0025 160.224 94.1651 162.863 96.4902C165.517 98.8154 166.843 101.782 166.843 105.391ZM162.692 105.905C162.692 102.467 162.143 99.871 161.045 98.1164C159.961 96.3476 158.47 95.1708 156.573 94.5859C154.675 94.001 152.272 93.7086 149.362 93.7086H143.97L144.569 114.721C144.569 116.119 144.968 117.024 145.767 117.438C146.58 117.852 148.071 118.059 150.239 118.059C154.447 118.059 157.571 117.181 159.611 115.427C161.665 113.658 162.692 110.484 162.692 105.905ZM190.933 111.254L190.762 111.853C190.077 114.25 188.872 116.168 187.146 117.609C185.42 119.05 183.173 119.77 180.406 119.77C177.324 119.77 174.593 118.757 172.21 116.732C169.828 114.692 168.637 111.839 168.637 108.173C168.637 105.263 169.728 102.745 171.911 100.62C174.108 98.4944 176.854 97.4317 180.149 97.4317C182.588 97.4317 184.771 98.1307 186.696 99.5286C188.622 100.912 189.749 102.524 190.077 104.364L190.334 105.777H172.703L172.617 106.761C172.574 107.303 172.553 107.831 172.553 108.344C172.553 111.411 173.287 113.9 174.757 115.812C176.24 117.709 178.252 118.658 180.791 118.658C182.859 118.658 184.792 117.994 186.589 116.668C188.401 115.327 189.578 113.565 190.12 111.383L190.248 110.869L190.933 111.254ZM186.547 104.429C186.547 102.802 185.947 101.34 184.749 100.042C183.565 98.7298 182.046 98.0736 180.192 98.0736C178.351 98.0736 176.882 98.4873 175.784 99.3147C174.7 100.128 173.937 101.026 173.494 102.011C173.052 102.995 172.831 103.722 172.831 104.193L172.788 104.921H186.525L186.547 104.429ZM215.723 108.772C215.723 111.953 214.618 114.592 212.407 116.689C210.21 118.772 207.55 119.813 204.426 119.813C202.999 119.813 201.544 119.421 200.061 118.636C198.591 117.852 197.529 117.089 196.873 116.347L195.995 115.362L196.359 122.638C196.359 123.579 196.437 124.271 196.594 124.713C196.751 125.169 196.937 125.533 197.151 125.804C197.365 126.09 197.586 126.282 197.814 126.382C198.057 126.496 198.271 126.575 198.456 126.617V127.003C198.014 127.003 197.436 126.981 196.723 126.938C196.01 126.896 195.418 126.874 194.947 126.874C194.333 126.874 193.613 126.896 192.786 126.938C191.958 126.981 191.502 127.003 191.416 127.003V126.596C191.573 126.539 191.73 126.482 191.887 126.425C192.058 126.311 192.258 126.132 192.486 125.89C192.714 125.662 192.886 125.219 193 124.563C193.114 123.921 193.171 123.237 193.171 122.509L193.385 103.252C193.385 102.467 193.321 101.868 193.192 101.454C193.078 101.026 192.9 100.67 192.657 100.385C192.429 100.085 192.137 99.8425 191.78 99.657V99.1863C192.208 99.1435 192.579 99.0936 192.893 99.0365C193.221 98.9652 193.606 98.8582 194.048 98.7155C194.49 98.5729 194.925 98.4017 195.353 98.202L195.824 98.4374C195.824 98.5087 195.803 98.8582 195.76 99.4858C195.731 100.113 195.717 100.506 195.717 100.663L195.824 102.995L196.166 103.059L196.402 102.524C197.144 100.855 198.249 99.5928 199.718 98.7369C201.202 97.8668 202.785 97.4317 204.469 97.4317C208.078 97.4317 210.852 98.58 212.792 100.877C214.746 103.173 215.723 105.805 215.723 108.772ZM212.043 108.259C212.043 105.092 211.444 102.645 210.246 100.919C209.048 99.1934 207.093 98.3304 204.383 98.3304C201.658 98.3304 199.597 99.2291 198.199 101.026C196.815 102.81 196.124 105.192 196.124 108.173C196.124 111.44 196.844 114.029 198.285 115.94C199.74 117.852 201.772 118.807 204.383 118.807C207.15 118.807 209.119 117.887 210.289 116.047C211.458 114.207 212.043 111.611 212.043 108.259ZM240.426 109.35C240.426 112.26 239.256 114.692 236.917 116.646C234.578 118.586 231.846 119.556 228.722 119.556C225.926 119.556 223.266 118.522 220.741 116.454C218.23 114.371 216.975 111.882 216.975 108.986C216.975 105.734 218.088 102.995 220.313 100.77C222.552 98.5301 225.384 97.4103 228.807 97.4103C232.26 97.4103 235.055 98.6086 237.195 101.005C239.349 103.402 240.426 106.183 240.426 109.35ZM236.853 108.794C236.853 105.855 236.204 103.344 234.906 101.262C233.608 99.1649 231.525 98.1164 228.658 98.1164C225.976 98.1164 223.986 99.1435 222.688 101.198C221.404 103.237 220.762 105.698 220.762 108.58C220.762 111.361 221.468 113.758 222.88 115.769C224.293 117.78 226.325 118.786 228.979 118.786C231.732 118.786 233.729 117.845 234.97 115.962C236.225 114.079 236.853 111.689 236.853 108.794ZM262.136 112.239C262.136 114.35 261.145 116.083 259.162 117.438C257.179 118.793 254.761 119.471 251.908 119.471C250.296 119.471 248.742 119.314 247.244 119C245.746 118.686 244.291 118.244 242.879 117.673L242.215 117.395L243.628 113.373L243.82 113.415L243.927 113.907C244.227 115.305 245.183 116.432 246.794 117.288C248.421 118.144 250.033 118.572 251.63 118.572C253.727 118.572 255.524 118.18 257.022 117.395C258.52 116.596 259.269 115.362 259.269 113.694C259.269 112.581 258.962 111.754 258.349 111.211C257.75 110.669 257.079 110.327 256.338 110.184C255.61 110.042 254.362 109.871 252.593 109.671L251.737 109.585C249.54 109.343 247.665 108.751 246.11 107.809C244.569 106.868 243.799 105.563 243.799 103.894C243.799 101.768 244.74 100.163 246.623 99.0793C248.52 97.9952 250.724 97.4531 253.235 97.4531C254.49 97.4531 255.753 97.5886 257.022 97.8597C258.292 98.1307 259.447 98.473 260.489 98.8867L260.938 99.0579L260.039 102.439L259.633 102.31L259.419 101.797C258.919 100.513 258.028 99.5857 256.744 99.0151C255.475 98.4302 254.262 98.1378 253.107 98.1378C251.038 98.1378 249.462 98.5729 248.378 99.443C247.294 100.299 246.752 101.469 246.752 102.952C246.752 103.936 247.058 104.692 247.672 105.22C248.299 105.748 249.041 106.112 249.897 106.312C250.767 106.497 251.98 106.661 253.535 106.804L254.219 106.868C255.931 107.025 257.329 107.253 258.413 107.553C259.511 107.838 260.403 108.351 261.088 109.093C261.787 109.835 262.136 110.883 262.136 112.239ZM266.44 94.7999C265.841 94.7999 265.37 94.6073 265.028 94.2222C264.685 93.837 264.514 93.3877 264.514 92.8741C264.514 92.3891 264.664 91.9826 264.964 91.6545C265.263 91.3121 265.698 91.141 266.269 91.141C266.868 91.141 267.339 91.3335 267.681 91.7187C268.023 92.1038 268.194 92.5532 268.194 93.0667C268.194 93.5517 268.045 93.9654 267.745 94.3077C267.446 94.6358 267.011 94.7999 266.44 94.7999ZM270.655 119C269.443 118.857 268.173 118.786 266.846 118.786C266.005 118.786 265.42 118.8 265.092 118.829C264.764 118.843 264.165 118.9 263.295 119V118.722C263.737 118.593 264.093 118.429 264.364 118.23C264.65 118.03 264.864 117.766 265.006 117.438C265.163 117.11 265.256 116.768 265.284 116.411C265.327 116.04 265.349 115.634 265.349 115.191V114.763L265.37 102.417C265.37 101.961 265.342 101.583 265.284 101.283C265.242 100.969 265.142 100.691 264.985 100.449C264.828 100.206 264.607 99.9922 264.322 99.8068C264.051 99.6214 263.829 99.5072 263.658 99.4644V99.1649L265.648 98.7155L267.51 98.2234L267.874 98.2662V99.3789C267.874 100.092 267.888 100.955 267.916 101.968C267.959 102.981 267.995 103.851 268.023 104.578L268.515 114.763C268.515 115.263 268.573 115.798 268.687 116.368C268.801 116.924 268.943 117.324 269.115 117.566C269.3 117.795 269.521 118.023 269.778 118.251C270.035 118.465 270.327 118.622 270.655 118.722V119ZM281.586 99.2291C281.586 99.443 281.543 99.6142 281.457 99.7426C281.372 99.871 281.201 99.9352 280.944 99.9352C280.773 99.9209 280.644 99.9138 280.559 99.9138H277.499L277.713 112.067C277.713 113.066 277.841 114.143 278.098 115.298C278.355 116.454 278.676 117.21 279.061 117.566C279.46 117.909 279.774 118.158 280.002 118.315C280.245 118.472 280.523 118.608 280.837 118.722V119H280.195C279.881 119 279.468 119.007 278.954 119.021C278.44 119.036 278.084 119.043 277.884 119.043C277.214 119.043 276.679 118.986 276.279 118.872C275.88 118.757 275.58 118.536 275.381 118.208C275.181 117.866 275.01 117.467 274.867 117.01C274.739 116.539 274.675 115.776 274.675 114.721L274.717 99.871L271.722 99.8924V99.3789C272.449 99.1221 273.006 98.8725 273.391 98.63C273.79 98.3732 274.282 97.9595 274.867 97.3889C275.452 96.8183 275.944 96.098 276.344 95.2278C276.757 94.3434 277.021 93.566 277.135 92.8955L277.841 93.0239C277.813 93.1095 277.777 93.2379 277.734 93.4091C277.706 93.566 277.67 93.7514 277.627 93.9654C277.599 94.1651 277.556 94.6358 277.499 95.3776C277.456 96.1194 277.435 96.7113 277.435 97.1536C277.435 97.4389 277.435 97.6885 277.435 97.9025C277.435 98.1164 277.463 98.4017 277.52 98.7583H280.43C280.844 98.7583 281.137 98.8011 281.308 98.8867C281.493 98.9723 281.586 99.0864 281.586 99.2291ZM285.998 94.7999C285.399 94.7999 284.928 94.6073 284.586 94.2222C284.243 93.837 284.072 93.3877 284.072 92.8741C284.072 92.3891 284.222 91.9826 284.522 91.6545C284.821 91.3121 285.256 91.141 285.827 91.141C286.426 91.141 286.897 91.3335 287.239 91.7187C287.581 92.1038 287.752 92.5532 287.752 93.0667C287.752 93.5517 287.603 93.9654 287.303 94.3077C287.004 94.6358 286.568 94.7999 285.998 94.7999ZM290.213 119C289.001 118.857 287.731 118.786 286.404 118.786C285.563 118.786 284.978 118.8 284.65 118.829C284.322 118.843 283.723 118.9 282.853 119V118.722C283.295 118.593 283.651 118.429 283.922 118.23C284.208 118.03 284.422 117.766 284.564 117.438C284.721 117.11 284.814 116.768 284.842 116.411C284.885 116.04 284.907 115.634 284.907 115.191V114.763L284.928 102.417C284.928 101.961 284.9 101.583 284.842 101.283C284.8 100.969 284.7 100.691 284.543 100.449C284.386 100.206 284.165 99.9922 283.88 99.8068C283.609 99.6214 283.387 99.5072 283.216 99.4644V99.1649L285.206 98.7155L287.068 98.2234L287.432 98.2662V99.3789C287.432 100.092 287.446 100.955 287.474 101.968C287.517 102.981 287.553 103.851 287.581 104.578L288.073 114.763C288.073 115.263 288.13 115.798 288.245 116.368C288.359 116.924 288.501 117.324 288.673 117.566C288.858 117.795 289.079 118.023 289.336 118.251C289.593 118.465 289.885 118.622 290.213 118.722V119ZM314.688 109.35C314.688 112.26 313.518 114.692 311.179 116.646C308.84 118.586 306.108 119.556 302.984 119.556C300.188 119.556 297.528 118.522 295.003 116.454C292.492 114.371 291.237 111.882 291.237 108.986C291.237 105.734 292.35 102.995 294.575 100.77C296.814 98.5301 299.646 97.4103 303.07 97.4103C306.522 97.4103 309.318 98.6086 311.457 101.005C313.611 103.402 314.688 106.183 314.688 109.35ZM311.115 108.794C311.115 105.855 310.466 103.344 309.168 101.262C307.87 99.1649 305.787 98.1164 302.92 98.1164C300.238 98.1164 298.248 99.1435 296.95 101.198C295.666 103.237 295.024 105.698 295.024 108.58C295.024 111.361 295.73 113.758 297.143 115.769C298.555 117.78 300.588 118.786 303.241 118.786C305.994 118.786 307.991 117.845 309.232 115.962C310.487 114.079 311.115 111.689 311.115 108.794ZM340.442 119C339.843 119 339.151 118.979 338.367 118.936C337.582 118.893 337.154 118.872 337.083 118.872C336.584 118.872 335.928 118.893 335.114 118.936C334.301 118.979 333.645 119 333.146 119V118.722C333.503 118.551 333.788 118.365 334.002 118.166C334.216 117.966 334.394 117.738 334.537 117.481C334.694 117.224 334.822 116.76 334.922 116.09C335.036 115.405 335.093 114.949 335.093 114.721L334.986 105.648C334.986 103.68 334.43 102.018 333.317 100.663C332.204 99.3075 330.621 98.63 328.567 98.63C326.327 98.63 324.594 99.5572 323.367 101.412C322.141 103.252 321.527 105.42 321.527 107.916L321.613 114.721C321.613 115.377 321.634 115.933 321.677 116.39C321.734 116.832 321.855 117.196 322.041 117.481C322.226 117.766 322.44 118.016 322.683 118.23C322.925 118.444 323.196 118.608 323.496 118.722V119C322.997 119 322.405 118.986 321.72 118.957C321.035 118.914 320.607 118.893 320.436 118.893C319.78 118.893 319.017 118.914 318.147 118.957C317.276 118.986 316.741 119 316.542 119V118.722C316.841 118.579 317.098 118.408 317.312 118.208C317.54 117.994 317.769 117.723 317.997 117.395C318.225 117.053 318.36 116.653 318.403 116.197C318.46 115.741 318.489 115.248 318.489 114.721L318.403 102.353C318.403 102.111 318.332 101.79 318.189 101.39C318.061 100.991 317.918 100.691 317.761 100.492C317.619 100.278 317.462 100.106 317.291 99.978C317.119 99.8353 316.963 99.7283 316.82 99.657L316.841 99.3361C317.212 99.2647 317.569 99.1934 317.911 99.1221C318.254 99.0508 318.603 98.9723 318.96 98.8867C319.331 98.7869 319.644 98.6941 319.901 98.6086C320.158 98.523 320.379 98.4516 320.564 98.3946L320.843 98.523L320.928 99.764C320.928 100.22 320.928 100.677 320.928 101.133C320.957 101.918 321.021 102.531 321.121 102.974L321.249 103.444L321.698 102.374C322.169 101.262 323.046 100.192 324.33 99.1649C325.628 98.1236 327.269 97.6029 329.252 97.6029C331.99 97.6029 334.152 98.309 335.735 99.7212C337.318 101.133 338.11 103.066 338.11 105.52L338.474 114.721C338.474 115.263 338.531 115.812 338.645 116.368C338.759 116.924 338.916 117.338 339.116 117.609C339.315 117.88 339.515 118.101 339.715 118.272C339.915 118.444 340.157 118.593 340.442 118.722V119ZM373.963 110.42C373.963 113.244 372.829 115.427 370.561 116.967C368.307 118.508 365.248 119.278 361.382 119.278C359.513 119.278 357.659 119.036 355.819 118.551C353.978 118.066 352.331 117.488 350.876 116.817L350.17 116.475L351.668 112.196L351.924 112.41L352.01 112.752C352.509 114.763 353.843 116.233 356.011 117.16C358.179 118.087 360.362 118.551 362.559 118.551C364.584 118.551 366.453 118.051 368.165 117.053C369.876 116.054 370.732 114.564 370.732 112.581C370.732 111.283 370.333 110.306 369.534 109.649C368.75 108.979 367.63 108.465 366.175 108.109C364.848 107.852 363.529 107.595 362.216 107.339L361.125 107.125C359.428 106.797 357.937 106.39 356.653 105.905C355.369 105.42 354.314 104.735 353.486 103.851C352.659 102.966 352.245 101.818 352.245 100.406C352.245 97.7527 353.294 95.8269 355.391 94.6287C357.502 93.4162 359.984 92.8099 362.837 92.8099C364.335 92.8099 366.046 93.0382 367.972 93.4946C369.912 93.9369 371.453 94.4147 372.594 94.9283L373.129 95.185L371.888 99.1221L371.567 98.9509L371.481 98.5872C371.11 96.9039 370.041 95.6629 368.272 94.8641C366.503 94.051 364.691 93.6444 362.837 93.6444C360.569 93.6444 358.729 94.0795 357.316 94.9497C355.904 95.8055 355.198 97.0466 355.198 98.6728C355.198 99.9708 355.569 100.984 356.311 101.711C357.052 102.439 357.944 102.959 358.985 103.273C360.041 103.587 361.517 103.936 363.415 104.322L364.249 104.493C366.103 104.807 367.516 105.078 368.486 105.306C369.47 105.52 370.625 106.055 371.952 106.911C373.293 107.767 373.963 108.936 373.963 110.42ZM397.178 119H394.311L394.011 118.893C393.897 118.85 393.761 118.658 393.604 118.315C393.462 117.973 393.362 117.681 393.305 117.438C393.262 117.181 393.191 116.775 393.091 116.218C393.005 115.662 392.941 115.32 392.898 115.191L392.813 114.935L392.235 115.705C391.179 117.117 390.11 118.116 389.025 118.7C387.956 119.271 386.65 119.556 385.11 119.556C382.999 119.556 381.094 118.986 379.397 117.845C377.699 116.689 376.851 114.913 376.851 112.517L376.872 103.059C376.872 102.417 376.829 101.918 376.744 101.561C376.672 101.205 376.551 100.912 376.38 100.684C376.209 100.456 376.037 100.285 375.866 100.171C375.709 100.056 375.488 99.9494 375.203 99.8496V99.4858C375.36 99.4573 375.652 99.386 376.08 99.2719C376.508 99.1578 376.886 99.065 377.214 98.9937C377.557 98.9224 377.892 98.8368 378.22 98.7369C378.548 98.6228 378.876 98.5087 379.204 98.3946L379.696 98.6086L379.611 100.256L379.568 102.888L379.632 111.661C379.632 113.558 380.146 115.17 381.173 116.497C382.2 117.809 383.683 118.465 385.623 118.465C387.749 118.465 389.453 117.738 390.737 116.283C392.021 114.813 392.663 112.659 392.663 109.821V103.059V102.717V102.417C392.663 102.175 392.656 101.889 392.642 101.561C392.627 101.219 392.549 100.898 392.406 100.598C392.278 100.285 392.1 100.049 391.871 99.8924C391.657 99.7212 391.422 99.6071 391.165 99.55V99.1863C391.522 99.1863 391.8 99.172 392 99.1435C392.199 99.1007 392.492 99.0365 392.877 98.9509C393.262 98.8511 393.59 98.7655 393.861 98.6941C394.147 98.6086 394.446 98.4802 394.76 98.309L395.38 98.4588C395.323 99.0436 395.295 99.6214 395.295 100.192V100.577V100.898V101.155C395.295 101.412 395.288 101.675 395.273 101.947C395.273 102.218 395.273 102.496 395.273 102.781V103.059L395.552 115.405C395.552 115.634 395.651 116.04 395.851 116.625C396.065 117.21 396.286 117.666 396.514 117.994C396.743 118.308 396.964 118.551 397.178 118.722V119ZM436.943 119C436.315 118.914 435.694 118.857 435.081 118.829C434.482 118.8 433.84 118.786 433.155 118.786C432.556 118.786 432.078 118.8 431.722 118.829C431.379 118.843 430.844 118.9 430.117 119V118.722C430.416 118.551 430.659 118.365 430.844 118.166C431.044 117.952 431.251 117.681 431.465 117.352C431.679 117.01 431.821 116.482 431.893 115.769C431.978 115.056 432.021 114.578 432.021 114.335L432 105.905C432 103.765 431.429 101.982 430.288 100.556C429.147 99.1292 427.749 98.416 426.094 98.416C423.783 98.416 422.029 99.2433 420.831 100.898C419.632 102.553 419.033 104.421 419.033 106.504L419.14 114.721C419.14 115.234 419.197 115.783 419.311 116.368C419.44 116.939 419.604 117.345 419.803 117.588C420.003 117.83 420.203 118.051 420.403 118.251C420.602 118.437 420.838 118.593 421.109 118.722V119C420.709 118.957 420.224 118.914 419.654 118.872C419.097 118.815 418.434 118.786 417.664 118.786C416.922 118.786 416.28 118.8 415.738 118.829C415.21 118.857 414.597 118.914 413.898 119V118.722C414.183 118.608 414.426 118.472 414.625 118.315C414.839 118.144 415.039 117.944 415.224 117.716C415.424 117.488 415.602 116.996 415.759 116.24C415.931 115.484 416.016 114.977 416.016 114.721L416.038 106.718C416.038 104.407 415.588 102.481 414.69 100.941C413.805 99.4003 412.257 98.63 410.046 98.63C407.735 98.63 405.974 99.55 404.761 101.39C403.563 103.216 402.964 105.391 402.964 107.916V114.721C402.964 115.263 403.057 115.84 403.242 116.454C403.428 117.067 403.613 117.495 403.798 117.738C403.998 117.966 404.155 118.144 404.269 118.272C404.398 118.401 404.619 118.551 404.932 118.722V119C404.562 119 404.02 118.986 403.306 118.957C402.593 118.929 402.186 118.914 402.087 118.914C401.602 118.914 400.974 118.929 400.204 118.957C399.433 118.986 398.806 119 398.321 119V118.722C398.592 118.565 398.827 118.379 399.027 118.166C399.227 117.952 399.398 117.723 399.54 117.481C399.683 117.238 399.797 116.775 399.883 116.09C399.983 115.405 400.033 114.949 400.033 114.721L400.054 102.353C400.054 102.111 400.004 101.804 399.904 101.433C399.819 101.048 399.69 100.748 399.519 100.534C399.362 100.32 399.205 100.156 399.048 100.042C398.891 99.9138 398.727 99.8068 398.556 99.7212L398.578 99.4003C399.291 99.2433 400.018 99.0436 400.76 98.8011L402.258 98.2448L402.6 98.4374C402.586 98.4802 402.572 98.5301 402.557 98.5872C402.557 98.6442 402.557 98.8796 402.557 99.2933C402.557 99.7355 402.55 100.192 402.536 100.663C402.522 101.119 402.507 101.568 402.493 102.011C402.493 102.182 402.493 102.346 402.493 102.503C402.507 102.645 402.536 102.745 402.579 102.802L402.75 103.016L403.199 102.139C403.77 100.998 404.676 99.9352 405.917 98.9509C407.158 97.9666 408.82 97.4745 410.902 97.4745C412.828 97.4745 414.376 97.8739 415.545 98.6728C416.715 99.4716 417.621 100.656 418.263 102.225L418.562 102.952L419.29 101.54C420.032 100.099 421.08 99.0294 422.435 98.3304C423.805 97.6172 425.295 97.2605 426.907 97.2605C429.347 97.2605 431.308 97.988 432.791 99.443C434.289 100.884 435.038 102.867 435.038 105.391L435.274 114.721C435.274 115.248 435.331 115.798 435.445 116.368C435.559 116.939 435.687 117.331 435.83 117.545C435.987 117.745 436.144 117.952 436.301 118.166C436.472 118.379 436.686 118.565 436.943 118.722V119ZM476.671 119C476.043 118.914 475.423 118.857 474.809 118.829C474.21 118.8 473.568 118.786 472.883 118.786C472.284 118.786 471.806 118.8 471.45 118.829C471.107 118.843 470.573 118.9 469.845 119V118.722C470.145 118.551 470.387 118.365 470.573 118.166C470.772 117.952 470.979 117.681 471.193 117.352C471.407 117.01 471.55 116.482 471.621 115.769C471.707 115.056 471.749 114.578 471.749 114.335L471.728 105.905C471.728 103.765 471.157 101.982 470.016 100.556C468.875 99.1292 467.477 98.416 465.822 98.416C463.512 98.416 461.757 99.2433 460.559 100.898C459.36 102.553 458.761 104.421 458.761 106.504L458.868 114.721C458.868 115.234 458.925 115.783 459.04 116.368C459.168 116.939 459.332 117.345 459.532 117.588C459.731 117.83 459.931 118.051 460.131 118.251C460.33 118.437 460.566 118.593 460.837 118.722V119C460.437 118.957 459.952 118.914 459.382 118.872C458.826 118.815 458.162 118.786 457.392 118.786C456.65 118.786 456.008 118.8 455.466 118.829C454.938 118.857 454.325 118.914 453.626 119V118.722C453.911 118.608 454.154 118.472 454.354 118.315C454.568 118.144 454.767 117.944 454.953 117.716C455.152 117.488 455.331 116.996 455.488 116.24C455.659 115.484 455.744 114.977 455.744 114.721L455.766 106.718C455.766 104.407 455.316 102.481 454.418 100.941C453.533 99.4003 451.986 98.63 449.775 98.63C447.464 98.63 445.702 99.55 444.489 101.39C443.291 103.216 442.692 105.391 442.692 107.916V114.721C442.692 115.263 442.785 115.84 442.97 116.454C443.156 117.067 443.341 117.495 443.527 117.738C443.726 117.966 443.883 118.144 443.997 118.272C444.126 118.401 444.347 118.551 444.661 118.722V119C444.29 119 443.748 118.986 443.034 118.957C442.321 118.929 441.915 118.914 441.815 118.914C441.33 118.914 440.702 118.929 439.932 118.957C439.162 118.986 438.534 119 438.049 119V118.722C438.32 118.565 438.555 118.379 438.755 118.166C438.955 117.952 439.126 117.723 439.269 117.481C439.411 117.238 439.525 116.775 439.611 116.09C439.711 115.405 439.761 114.949 439.761 114.721L439.782 102.353C439.782 102.111 439.732 101.804 439.632 101.433C439.547 101.048 439.418 100.748 439.247 100.534C439.09 100.32 438.933 100.156 438.776 100.042C438.62 99.9138 438.456 99.8068 438.284 99.7212L438.306 99.4003C439.019 99.2433 439.746 99.0436 440.488 98.8011L441.986 98.2448L442.328 98.4374C442.314 98.4802 442.3 98.5301 442.286 98.5872C442.286 98.6442 442.286 98.8796 442.286 99.2933C442.286 99.7355 442.278 100.192 442.264 100.663C442.25 101.119 442.236 101.568 442.221 102.011C442.221 102.182 442.221 102.346 442.221 102.503C442.236 102.645 442.264 102.745 442.307 102.802L442.478 103.016L442.928 102.139C443.498 100.998 444.404 99.9352 445.645 98.9509C446.886 97.9666 448.548 97.4745 450.63 97.4745C452.556 97.4745 454.104 97.8739 455.274 98.6728C456.443 99.4716 457.349 100.656 457.991 102.225L458.291 102.952L459.018 101.54C459.76 100.099 460.808 99.0294 462.163 98.3304C463.533 97.6172 465.024 97.2605 466.635 97.2605C469.075 97.2605 471.036 97.988 472.52 99.443C474.017 100.884 474.766 102.867 474.766 105.391L475.002 114.721C475.002 115.248 475.059 115.798 475.173 116.368C475.287 116.939 475.415 117.331 475.558 117.545C475.715 117.745 475.872 117.952 476.029 118.166C476.2 118.379 476.414 118.565 476.671 118.722V119ZM498.447 119H494.98L494.552 117.609C494.424 117.153 494.303 116.653 494.189 116.111C494.089 115.569 494.039 115.206 494.039 115.02L493.097 116.39C492.341 117.502 491.5 118.301 490.573 118.786C489.66 119.271 488.547 119.514 487.235 119.514C484.795 119.514 482.599 118.929 480.644 117.759C478.704 116.575 477.734 114.992 477.734 113.009C477.734 111.169 478.476 109.756 479.96 108.772C481.457 107.788 483.255 107.132 485.352 106.804C487.449 106.461 489.546 106.29 491.642 106.29H493.568V105.563C493.568 103.366 493.076 101.59 492.092 100.235C491.108 98.8796 489.488 98.202 487.235 98.202C485.594 98.202 484.111 98.5872 482.784 99.3575C481.472 100.128 480.573 101.155 480.088 102.439L479.831 103.123H479.446L478.505 99.5714L479.361 99.2291C480.659 98.7155 481.921 98.3161 483.148 98.0308C484.389 97.7455 485.723 97.6029 487.149 97.6029C490.587 97.6029 493.019 98.3518 494.445 99.8496C495.886 101.333 496.607 103.423 496.607 106.119V113.03C496.607 113.558 496.678 114.343 496.821 115.384C496.977 116.425 497.142 117.081 497.313 117.352C497.484 117.623 497.655 117.887 497.826 118.144C497.997 118.387 498.204 118.615 498.447 118.829V119ZM493.654 111.725V107.103H492.627C490.487 107.103 488.633 107.224 487.063 107.467C485.494 107.695 484.139 108.223 482.998 109.05C481.871 109.863 481.308 111.083 481.308 112.709C481.308 112.995 481.343 113.565 481.415 114.421C481.5 115.277 482.092 116.19 483.191 117.16C484.289 118.13 485.694 118.615 487.406 118.615C489.289 118.615 490.801 117.944 491.942 116.604C493.083 115.248 493.654 113.622 493.654 111.725ZM512.183 97.7741L511.07 101.412L510.685 101.112C510.4 100.898 510.122 100.763 509.851 100.705C509.58 100.634 509.116 100.598 508.46 100.598C507.319 100.598 506.406 101.454 505.721 103.166C505.051 104.864 504.715 106.333 504.715 107.574L504.844 114.721C504.844 115.405 504.887 115.947 504.972 116.347C505.058 116.732 505.286 117.181 505.657 117.695C506.042 118.208 506.527 118.551 507.112 118.722V119C505.842 118.886 504.594 118.829 503.367 118.829C502.212 118.829 501.014 118.886 499.773 119V118.722C500.3 118.451 500.714 118.08 501.014 117.609C501.313 117.124 501.499 116.611 501.57 116.069C501.641 115.527 501.677 115.077 501.677 114.721L501.827 102.182C501.827 101.683 501.77 101.29 501.656 101.005C501.541 100.705 501.385 100.456 501.185 100.256C500.999 100.042 500.793 99.871 500.564 99.7426C500.35 99.6142 500.179 99.5358 500.051 99.5072V99.0793C500.536 98.9937 500.914 98.9153 501.185 98.8439C501.47 98.7726 501.805 98.687 502.191 98.5872C502.576 98.473 502.918 98.3589 503.218 98.2448C503.531 98.1307 503.81 98.0308 504.052 97.9452L504.501 98.2876C504.487 98.3732 504.466 98.4944 504.437 98.6514C504.423 98.8083 504.394 99.0365 504.352 99.3361C504.323 99.6214 504.302 99.928 504.287 100.256C504.273 100.584 504.266 100.941 504.266 101.326C504.266 101.626 504.266 101.861 504.266 102.032C504.266 102.189 504.295 102.581 504.352 103.209L504.694 103.337L504.994 102.781C505.479 101.868 506.006 101.062 506.577 100.363C507.148 99.6499 507.868 99.0436 508.738 98.5444C509.608 98.0308 510.757 97.7741 512.183 97.7741ZM516.301 94.7999C515.702 94.7999 515.232 94.6073 514.889 94.2222C514.547 93.837 514.376 93.3877 514.376 92.8741C514.376 92.3891 514.525 91.9826 514.825 91.6545C515.125 91.3121 515.56 91.141 516.13 91.141C516.729 91.141 517.2 91.3335 517.542 91.7187C517.885 92.1038 518.056 92.5532 518.056 93.0667C518.056 93.5517 517.906 93.9654 517.607 94.3077C517.307 94.6358 516.872 94.7999 516.301 94.7999ZM520.517 119C519.304 118.857 518.035 118.786 516.708 118.786C515.866 118.786 515.281 118.8 514.953 118.829C514.625 118.843 514.026 118.9 513.156 119V118.722C513.598 118.593 513.955 118.429 514.226 118.23C514.511 118.03 514.725 117.766 514.868 117.438C515.025 117.11 515.117 116.768 515.146 116.411C515.189 116.04 515.21 115.634 515.21 115.191V114.763L515.232 102.417C515.232 101.961 515.203 101.583 515.146 101.283C515.103 100.969 515.003 100.691 514.846 100.449C514.69 100.206 514.468 99.9922 514.183 99.8068C513.912 99.6214 513.691 99.5072 513.52 99.4644V99.1649L515.51 98.7155L517.371 98.2234L517.735 98.2662V99.3789C517.735 100.092 517.749 100.955 517.778 101.968C517.821 102.981 517.856 103.851 517.885 104.578L518.377 114.763C518.377 115.263 518.434 115.798 518.548 116.368C518.662 116.924 518.805 117.324 518.976 117.566C519.162 117.795 519.383 118.023 519.639 118.251C519.896 118.465 520.189 118.622 520.517 118.722V119ZM543.943 111.254L543.772 111.853C543.087 114.25 541.882 116.168 540.156 117.609C538.43 119.05 536.183 119.77 533.416 119.77C530.335 119.77 527.603 118.757 525.221 116.732C522.839 114.692 521.647 111.839 521.647 108.173C521.647 105.263 522.739 102.745 524.921 100.62C527.118 98.4944 529.864 97.4317 533.159 97.4317C535.598 97.4317 537.781 98.1307 539.707 99.5286C541.632 100.912 542.759 102.524 543.087 104.364L543.344 105.777H525.713L525.627 106.761C525.585 107.303 525.563 107.831 525.563 108.344C525.563 111.411 526.298 113.9 527.767 115.812C529.251 117.709 531.262 118.658 533.801 118.658C535.869 118.658 537.802 117.994 539.6 116.668C541.411 115.327 542.588 113.565 543.13 111.383L543.259 110.869L543.943 111.254ZM539.557 104.429C539.557 102.802 538.958 101.34 537.76 100.042C536.576 98.7298 535.056 98.0736 533.202 98.0736C531.362 98.0736 529.893 98.4873 528.794 99.3147C527.71 100.128 526.947 101.026 526.505 102.011C526.062 102.995 525.841 103.722 525.841 104.193L525.799 104.921H539.535L539.557 104.429ZM565.075 112.239C565.075 114.35 564.083 116.083 562.101 117.438C560.118 118.793 557.7 119.471 554.847 119.471C553.235 119.471 551.68 119.314 550.182 119C548.685 118.686 547.23 118.244 545.817 117.673L545.154 117.395L546.566 113.373L546.759 113.415L546.866 113.907C547.165 115.305 548.121 116.432 549.733 117.288C551.359 118.144 552.971 118.572 554.569 118.572C556.666 118.572 558.463 118.18 559.961 117.395C561.459 116.596 562.208 115.362 562.208 113.694C562.208 112.581 561.901 111.754 561.288 111.211C560.688 110.669 560.018 110.327 559.276 110.184C558.549 110.042 557.301 109.871 555.532 109.671L554.676 109.585C552.479 109.343 550.603 108.751 549.048 107.809C547.508 106.868 546.737 105.563 546.737 103.894C546.737 101.768 547.679 100.163 549.562 99.0793C551.459 97.9952 553.663 97.4531 556.174 97.4531C557.429 97.4531 558.691 97.5886 559.961 97.8597C561.23 98.1307 562.386 98.473 563.427 98.8867L563.877 99.0579L562.978 102.439L562.571 102.31L562.357 101.797C561.858 100.513 560.967 99.5857 559.683 99.0151C558.413 98.4302 557.201 98.1378 556.045 98.1378C553.977 98.1378 552.401 98.5729 551.316 99.443C550.232 100.299 549.69 101.469 549.69 102.952C549.69 103.936 549.997 104.692 550.61 105.22C551.238 105.748 551.98 106.112 552.836 106.312C553.706 106.497 554.918 106.661 556.473 106.804L557.158 106.868C558.87 107.025 560.268 107.253 561.352 107.553C562.45 107.838 563.342 108.351 564.026 109.093C564.725 109.835 565.075 110.883 565.075 112.239Z" fill="#0C0037"/>
  <path d="M218.041 69C213.546 69 209.639 68.1 206.317 66.3C202.995 64.46 200.435 61.86 198.638 58.5C196.879 55.14 196 51.14 196 46.5C196 41.86 196.879 37.86 198.638 34.5C200.435 31.14 202.995 28.56 206.317 26.76C209.639 24.92 213.546 24 218.041 24C223.277 24 228.475 25.52 232.5 28L230.702 31.98C226.794 29.58 222.632 28.38 218.216 28.38C214.66 28.38 211.573 29.12 208.955 30.6C206.375 32.08 204.382 34.18 202.976 36.9C201.569 39.58 200.865 42.78 200.865 46.5C200.865 50.18 201.569 53.38 202.976 56.1C204.382 58.82 206.375 60.92 208.955 62.4C211.573 63.88 214.66 64.62 218.216 64.62C222.554 64.62 226.716 63.42 230.702 61.02L232.5 65C228.475 67.48 223.277 69 218.041 69Z" fill="#28007A"/>
  <path d="M261.279 69C256.902 69 253.053 68.08 249.731 66.24C246.449 64.36 243.909 61.74 242.111 58.38C240.313 54.98 239.415 51.02 239.415 46.5C239.415 41.94 240.313 37.98 242.111 34.62C243.909 31.26 246.449 28.66 249.731 26.82C253.053 24.94 256.902 24 261.279 24C265.734 24 269.584 24.94 272.827 26.82C276.11 28.66 278.65 31.26 280.447 34.62C282.284 37.98 283.203 41.94 283.203 46.5C283.203 51.02 282.284 54.98 280.447 58.38C278.65 61.74 276.11 64.36 272.827 66.24C269.584 68.08 265.734 69 261.279 69ZM261.279 64.62C264.757 64.62 267.766 63.88 270.307 62.4C272.886 60.88 274.879 58.78 276.286 56.1C277.692 53.38 278.396 50.18 278.396 46.5C278.396 42.82 277.692 39.64 276.286 36.96C274.879 34.24 272.886 32.14 270.307 30.66C267.766 29.14 264.757 28.38 261.279 28.38C257.84 28.38 254.831 29.14 252.252 30.66C249.673 32.14 247.68 34.24 246.273 36.96C244.905 39.64 244.221 42.82 244.221 46.5C244.221 50.18 244.905 53.38 246.273 56.1C247.68 58.78 249.673 60.88 252.252 62.4C254.831 63.88 257.84 64.62 261.279 64.62Z" fill="#28007A"/>
  <path d="M292.399 24.84C293.805 24.68 295.212 24.54 296.619 24.42C298.026 24.3 299.413 24.2 300.781 24.12C302.188 24.04 303.477 24 304.65 24C310.863 24 315.397 25.04 318.249 27.12C321.102 29.2 322.528 32.5 322.528 37.02C322.528 41.58 321.102 44.9 318.249 46.98C315.397 49.06 310.863 50.1 304.65 50.1C303.126 50.1 301.465 50.04 299.667 49.92C297.87 49.8 295.994 49.64 294.04 49.44L294.861 45.06C297.049 45.34 298.905 45.54 300.429 45.66C301.992 45.78 303.477 45.84 304.884 45.84C309.417 45.84 312.681 45.16 314.674 43.8C316.706 42.4 317.722 40.18 317.722 37.14C317.722 34.06 316.706 31.84 314.674 30.48C312.681 29.08 309.417 28.38 304.884 28.38C303.477 28.38 301.973 28.44 300.371 28.56C298.808 28.68 296.912 28.9 294.685 29.22L297.088 26.58V68.4H292.399V24.84ZM318.367 68.4L294.685 47.34H300.781L324.639 68.4H318.367Z" fill="#28007A"/>
  <path d="M333.298 68.4V24.6H338.632L361.728 60.78H361.845V24.6H366.535V68.4H361.259L338.105 32.22H337.987V68.4H333.298Z" fill="#28007A"/>
  <path d="M377.434 68.4V24.6H404.632V28.92H382.123V43.2H403.46V47.46H382.123V64.08H404.632V68.4H377.434Z" fill="#28007A"/>
  <path d="M412.356 24.84C413.763 24.68 415.17 24.54 416.577 24.42C417.984 24.3 417.371 24.2 418.739 24.12C420.145 24.04 421.435 24 422.607 24C428.821 24 433.354 25.04 436.207 27.12C439.06 29.2 440.486 32.5 440.486 37.02C440.486 41.58 439.06 44.9 436.207 46.98C433.354 49.06 428.821 50.1 422.607 50.1C421.083 50.1 419.423 50.04 417.625 49.92C415.827 49.8 415.951 49.64 413.998 49.44L414.818 45.06C417.007 45.34 416.863 45.54 418.387 45.66C419.95 45.78 421.435 45.84 422.842 45.84C427.375 45.84 430.638 45.16 432.631 43.8C434.663 42.4 435.679 40.18 435.679 37.14C435.679 34.06 434.663 31.84 432.631 30.48C430.638 29.08 427.375 28.38 422.842 28.38C421.435 28.38 419.931 28.44 418.328 28.56C416.765 28.68 416.87 28.9 414.642 29.22L417.046 26.58V68.4H412.356V24.84ZM436 68.4L414 47.5L421.293 45.8167L442.596 68.4H436Z" fill="#28007A"/>
  <mask id="path-3-outside-1_12_25" maskUnits="userSpaceOnUse" x="141" y="23" width="27" height="47" fill="black">
  <rect fill="white" x="141" y="23" width="27" height="47"/>
  <path d="M161.94 69H159.72V59.4H142.14V57.18L161.94 27V57.18H166.26V59.4H161.94V69ZM159.72 34.5L144.66 57.18H159.72V34.5Z"/>
  </mask>
  <path d="M161.94 69H159.72V59.4H142.14V57.18L161.94 27V57.18H166.26V59.4H161.94V69ZM159.72 34.5L144.66 57.18H159.72V34.5Z" fill="#28007A"/>
  <path d="M161.94 69V70H162.94V69H161.94ZM159.72 69H158.72V70H159.72V69ZM159.72 59.4H160.72V58.4H159.72V59.4ZM142.14 59.4H141.14V60.4H142.14V59.4ZM142.14 57.18L141.304 56.6315L141.14 56.8812V57.18H142.14ZM161.94 27H162.94V23.6528L161.104 26.4514L161.94 27ZM161.94 57.18H160.94V58.18H161.94V57.18ZM166.26 57.18H167.26V56.18H166.26V57.18ZM166.26 59.4V60.4H167.26V59.4H166.26ZM161.94 59.4V58.4H160.94V59.4H161.94ZM159.72 34.5H160.72V31.1863L158.887 33.9468L159.72 34.5ZM144.66 57.18L143.827 56.6268L142.796 58.18H144.66V57.18ZM159.72 57.18V58.18H160.72V57.18H159.72ZM161.94 68H159.72V70H161.94V68ZM160.72 69V59.4H158.72V69H160.72ZM159.72 58.4H142.14V60.4H159.72V58.4ZM143.14 59.4V57.18H141.14V59.4H143.14ZM142.976 57.7285L162.776 27.5485L161.104 26.4514L141.304 56.6315L142.976 57.7285ZM160.94 27V57.18H162.94V27H160.94ZM161.94 58.18H166.26V56.18H161.94V58.18ZM165.26 57.18V59.4H167.26V57.18H165.26ZM166.26 58.4H161.94V60.4H166.26V58.4ZM160.94 59.4V69H162.94V59.4H160.94ZM158.887 33.9468L143.827 56.6268L145.493 57.7332L160.553 35.0532L158.887 33.9468ZM144.66 58.18H159.72V56.18H144.66V58.18ZM160.72 57.18V34.5H158.72V57.18H160.72Z" fill="#28007A" mask="url(#path-3-outside-1_12_25)"/>
  <path d="M463.598 67.4239L463.599 67.4232C464.904 66.8539 466.043 66.0803 467.013 65.1022C468.003 64.1249 468.784 62.985 469.358 61.6844C469.953 60.3773 470.25 58.9791 470.25 57.4925V56.209C470.25 54.3538 469.966 52.7652 469.387 51.4515C468.814 50.1505 468.051 49.0478 467.096 48.1474C466.15 47.2351 465.076 46.4752 463.876 45.8676C462.708 45.2472 461.502 44.6869 460.257 44.1866C459.019 43.6694 457.81 43.1721 456.631 42.6946C455.486 42.2038 454.458 41.6356 453.546 40.9909C452.644 40.3332 451.923 39.5521 451.38 38.6475C450.848 37.7599 450.574 36.6529 450.574 35.3134V34.5075C450.574 33.5834 450.742 32.7315 451.076 31.9489L451.076 31.9489L451.077 31.9469C451.414 31.1392 451.87 30.4402 452.446 29.8473C453.044 29.2525 453.724 28.7828 454.489 28.4373C455.268 28.094 456.104 27.9216 456.999 27.9216H459.32C460.216 27.9216 461.042 28.0942 461.8 28.4368L461.8 28.4368L461.802 28.4377C462.587 28.7834 463.266 29.2528 463.843 29.8459C464.419 30.4391 464.876 31.1386 465.213 31.9469L465.214 31.9489C465.548 32.7315 465.716 33.5834 465.716 34.5075V35.6119V35.8619H465.966L469.71 35.8619H469.96V35.6119V34.5075C469.96 33.0234 469.683 31.6273 469.128 30.3216C468.594 29.02 467.851 27.8789 466.9 26.9004C465.949 25.9218 464.839 25.1572 463.571 24.6072C462.3 24.0353 460.94 23.75 459.495 23.75H456.825C455.379 23.75 454.009 24.0354 452.719 24.6069C451.452 25.157 450.342 25.9217 449.39 26.9004C448.439 27.8786 447.687 29.0192 447.134 30.3201L447.134 30.3201L447.133 30.323C446.597 31.6284 446.33 33.024 446.33 34.5075V35.3134C446.33 37.1684 446.614 38.7478 447.194 40.0424C447.767 41.3239 448.531 42.4163 449.485 43.3162L449.487 43.3182C450.434 44.1903 451.498 44.9201 452.68 45.5074L452.681 45.5082C453.868 46.0885 455.084 46.6187 456.328 47.0989C457.565 47.5759 458.763 48.0528 459.922 48.5297L459.923 48.5302C461.085 49.0005 462.12 49.5773 463.03 50.2597L463.033 50.2618C463.934 50.9182 464.655 51.7179 465.198 52.662C465.732 53.5892 466.006 54.7669 466.006 56.209V57.4925C466.006 58.4129 465.82 59.2724 465.449 60.0741L465.448 60.0764C465.093 60.8638 464.608 61.5646 463.992 62.1797C463.376 62.7746 462.667 63.245 461.862 63.5913C461.063 63.9357 460.216 64.1082 459.32 64.1082H456.709C455.813 64.1082 454.957 63.9358 454.136 63.5908C453.333 63.2446 452.624 62.7743 452.008 62.1798C451.392 61.5644 450.897 60.8633 450.522 60.0752C450.17 59.2735 449.994 58.4135 449.994 57.4925V55.0522V54.7481L449.695 54.807L445.952 55.5458L445.75 55.5856V55.791V57.4925C445.75 58.9784 446.037 60.3761 446.613 61.6829L446.613 61.6829L446.614 61.6858C447.206 62.9852 447.987 64.1244 448.957 65.1015L448.959 65.1033C449.948 66.08 451.085 66.8533 452.37 67.4226L452.37 67.4226L452.375 67.4245C453.683 67.9749 455.06 68.25 456.505 68.25H459.495C460.94 68.25 462.308 67.9749 463.598 67.4239Z" fill="#28007A" stroke="#28007A" stroke-width="0.5"/>
  <g clip-path="url(#clip0_12_25)">
  <rect x="59.1905" y="9.53489" width="70.2236" height="70.2236" transform="rotate(45 59.1905 9.53489)" stroke="url(#paint0_linear_12_25)" stroke-width="13.0233"/>
  <rect x="59.1905" y="35.0173" width="34.186" height="34.186" transform="rotate(45 59.1905 35.0173)" stroke="url(#paint1_linear_12_25)" stroke-width="9.76744"/>
  </g>
  <defs>
  <linearGradient id="paint0_linear_12_25" x1="132.494" y1="4.61051" x2="51.806" y2="85.2983" gradientUnits="userSpaceOnUse">
  <stop offset="0.484375" stop-color="#072B62"/>
  <stop offset="0.484475" stop-color="#5C6F99"/>
  </linearGradient>
  <linearGradient id="paint1_linear_12_25" x1="95.2799" y1="32.5413" x2="55.5668" y2="72.2544" gradientUnits="userSpaceOnUse">
  <stop offset="0.484475" stop-color="#7F97A4"/>
  <stop offset="0.484575" stop-color="#597786"/>
  </linearGradient>
  <clipPath id="clip0_12_25">
  <rect width="118" height="119" fill="white"/>
  </clipPath>
  </defs>
  </svg>
  