<svg width="218" height="160" viewBox="0 0 218 160" fill="none" xmlns="http://www.w3.org/2000/svg">
  <g opacity="0.2">
  <path fill-rule="evenodd" clip-rule="evenodd" d="M0.499756 88.347C0.499756 106.772 7.24928 123.562 18.3561 136.252C31.0981 150.814 49.5753 159.969 70.1713 160C79.1726 160.013 87.7794 158.272 95.6852 155.095C99.7729 153.451 104.348 153.64 108.307 155.587C112.951 157.868 118.151 159.147 123.643 159.147C125.911 159.147 128.132 158.928 130.281 158.51C136.414 157.323 141.996 154.515 146.58 150.537C149.46 148.036 153.15 146.779 156.92 146.783H156.984C169.444 146.783 181.017 142.902 190.626 136.252C199.216 130.314 206.231 122.165 210.905 112.596C214.98 104.258 217.274 94.8391 217.274 84.8701C217.274 50.6788 190.279 22.9571 156.984 22.9571C153.59 22.9571 150.265 23.2515 147.02 23.8008C138.43 9.52003 123.047 0 105.499 0C98.0902 0 91.0663 1.69675 84.7791 4.73832C78.8 7.62148 73.4839 11.7183 69.1351 16.7111C54.3688 16.9529 40.715 21.9066 29.5398 30.174C11.9488 43.1801 0.499756 64.3922 0.499756 88.347Z" fill="url(#paint0_linear_214_1237)"/>
  </g>
  <path opacity="0.05" d="M132.825 91.6407C131.81 92.8287 130.713 92.8087 130.06 92.6413L130.084 92.0261C130.084 92.0261 132.785 90.8116 132.716 91.0667C132.69 91.1624 132.741 91.3923 132.825 91.6407Z" fill="#FF4842"/>
  <path opacity="0.05" d="M140.225 92.9854C138.501 93.966 137.49 92.8166 137.255 92.4911C137.399 92.1177 137.617 91.5118 137.572 91.339C137.507 91.0826 140.204 92.2971 140.204 92.2971L140.225 92.9854Z" fill="#FF4842"/>
  <path opacity="0.05" d="M138.378 83.2016C138.378 83.2016 140.019 82.2715 140.377 82.69C140.735 83.1086 138.378 83.2016 138.378 83.2016Z" fill="#FF4842"/>
  <path opacity="0.05" d="M139.369 83.7131C139.369 83.7131 139.099 83.846 139.695 84.0161C140.29 84.1862 139.369 83.7131 139.369 83.7131Z" fill="#FF4842"/>
  <path opacity="0.05" d="M129.449 81.1552C129.394 81.1712 130.814 82.0986 132.097 81.3306C132.092 81.3306 129.769 81.0595 129.449 81.1552Z" fill="#FF4842"/>
  <path opacity="0.05" d="M132.027 82.9292C132.027 82.9292 131.638 83.6813 130.842 83.7929C130.045 83.9045 132.027 82.9292 132.027 82.9292Z" fill="#FF4842"/>
  <path opacity="0.05" d="M137.241 84.561C137.241 84.561 139.11 87.4843 138.752 88.1739C138.395 88.8636 137.241 84.561 137.241 84.561Z" fill="#FF4842"/>
  <path opacity="0.05" d="M133.554 96.185C133.554 96.3484 133.554 96.5012 133.538 96.6274C133.489 97.2187 132.011 96.9955 132.011 96.9955C130.661 97.1802 130.175 96.5424 130.014 95.9325C129.963 95.7344 129.938 95.5308 129.94 95.3266C129.939 95.2048 129.947 95.0831 129.964 94.9625V94.8416C130.255 94.7552 130.57 94.8186 130.804 95.0103C131.405 95.49 132.201 95.122 132.201 95.122C132.201 95.122 132.786 95.1698 133.011 95.3611C133.138 95.4688 133.348 95.2097 133.507 94.9625C133.516 95.122 133.531 95.4103 133.541 95.7186C133.551 95.8767 133.554 96.0362 133.554 96.185Z" fill="#FF4842"/>
  <path opacity="0.05" d="M131.183 96.1505C131.183 96.1505 130.778 96.5412 130.014 95.9379C129.963 95.7398 129.938 95.5363 129.94 95.332C130.33 95.6244 131.054 96.1505 131.183 96.1505Z" fill="#FF4842"/>
  <path opacity="0.05" d="M133.554 96.185C133.488 96.2356 133.403 96.2568 133.32 96.2438C133.237 96.2307 133.163 96.1844 133.115 96.1159C133.273 95.998 133.418 95.8644 133.547 95.7173C133.551 95.8767 133.554 96.0362 133.554 96.185Z" fill="#FF4842"/>
  <path opacity="0.05" d="M136.723 96.4587C136.723 96.6235 136.723 96.7763 136.738 96.9012C136.787 97.4939 138.265 97.2693 138.265 97.2693C139.615 97.4553 140.101 96.8175 140.262 96.2063C140.342 95.8891 140.359 95.5598 140.312 95.2363V95.1154C140.02 95.0305 139.705 95.0937 139.471 95.2841C138.87 95.7638 138.075 95.3957 138.075 95.3957C138.075 95.3957 137.49 95.4449 137.265 95.6362C137.138 95.7439 136.928 95.4848 136.77 95.2376C136.761 95.3971 136.745 95.6854 136.735 95.9937C136.724 96.1491 136.722 96.3086 136.723 96.4587Z" fill="#FF4842"/>
  <path opacity="0.05" d="M139.094 96.4214C139.094 96.4214 139.499 96.8121 140.262 96.2088C140.313 96.0112 140.338 95.8081 140.338 95.6042C139.946 95.8952 139.222 96.4214 139.094 96.4214Z" fill="#FF4842"/>
  <path opacity="0.05" d="M136.723 96.4587C136.79 96.5092 136.874 96.5304 136.957 96.5173C137.04 96.5043 137.114 96.458 137.161 96.3896C137.003 96.2718 136.858 96.1382 136.729 95.991C136.724 96.1491 136.722 96.3085 136.723 96.4587Z" fill="#FF4842"/>
  <g opacity="0.05">
  <path d="M144.842 47.2306C144.87 47.1695 144.897 47.1084 144.923 47.0486C144.948 46.9888 144.958 46.9556 144.973 46.9077C144.923 47.0129 144.879 47.1207 144.842 47.2306Z" fill="#FF4842"/>
  </g>
  <path fill-rule="evenodd" clip-rule="evenodd" d="M71.6706 124.205C71.3433 123.817 71.1933 123.314 71.256 122.814L77.2158 74.8226L77.71 70.8363C77.8245 69.919 78.6126 69.2276 79.5517 69.2205L97.0084 69.1062C97.5105 69.1032 97.9903 68.9012 98.3393 68.546C98.6884 68.1907 98.8773 67.712 98.8635 67.218L98.8568 67.036C98.8396 66.5378 99.0287 66.054 99.3807 65.6955C99.7327 65.3371 100.218 65.1346 100.724 65.1345H119.068C120.098 65.1345 120.933 65.9549 120.935 66.9682C120.935 67.0509 120.93 67.1334 120.919 67.2154C120.849 67.7326 121.005 68.2548 121.349 68.6518C121.693 69.0488 122.193 69.2831 122.723 69.2962L140.34 69.7387C140.882 69.7518 141.392 69.9963 141.736 70.4086C142.08 70.8209 142.225 71.3601 142.133 71.886L133.326 122.512L133.16 123.469C133.119 123.713 133.027 123.947 132.89 124.154L71.6706 124.205Z" fill="#04297A"/>
  <rect width="10.2629" height="34.6368" transform="matrix(0.826958 0.562264 -0.574576 0.818451 124.835 54.967)" fill="white"/>
  <rect width="7.24511" height="7.20483" transform="matrix(0.825354 0.564615 -0.576929 0.816794 125.447 56.3103)" fill="#FFC107"/>
  <rect opacity="0.5" width="7.25522" height="7.21427" transform="matrix(0.826958 0.562264 -0.574576 0.818451 120.763 63.4021)" fill="#FFC107"/>
  <rect opacity="0.3" width="7.25522" height="7.21427" transform="matrix(0.826958 0.562264 -0.574576 0.818451 115.757 70.5308)" fill="#FFC107"/>
  <rect width="10.3027" height="34.3699" transform="matrix(0.961046 0.276389 -0.28466 0.958629 112.844 53.1917)" fill="white"/>
  <rect width="7.28338" height="7.18584" transform="matrix(0.961046 0.276389 -0.284659 0.958629 114.145 54.1426)" fill="#FF4842"/>
  <rect opacity="0.5" width="7.28338" height="7.18584" transform="matrix(0.961046 0.276389 -0.28466 0.958629 111.675 62.459)" fill="#FF4842"/>
  <rect opacity="0.3" width="7.28338" height="7.18584" transform="matrix(0.961046 0.27639 -0.284659 0.958629 109.205 70.7739)" fill="#FF4842"/>
  <rect width="10.3145" height="34.3296" transform="matrix(0.99688 0.0789339 -0.081484 0.996675 105.831 53.7112)" fill="white"/>
  <rect width="7.29168" height="7.17741" transform="matrix(0.99688 0.0789339 -0.081484 0.996675 107.294 54.384)" fill="#1890FF"/>
  <rect opacity="0.5" width="7.29167" height="7.17741" transform="matrix(0.99688 0.0789339 -0.0814839 0.996675 106.587 63.0186)" fill="#1890FF"/>
  <rect opacity="0.3" width="7.29167" height="7.17741" transform="matrix(0.99688 0.0789339 -0.0814839 0.996675 105.882 71.6558)" fill="#1890FF"/>
  <rect width="10.3152" height="34.3272" transform="matrix(0.998995 -0.044816 0.0462703 0.998929 101.205 55.0869)" fill="white"/>
  <rect width="7.29218" height="7.17691" transform="matrix(0.998995 -0.044816 0.0462703 0.998929 102.741 55.5715)" fill="#1890FF"/>
  <rect opacity="0.5" width="7.30124" height="7.18592" transform="matrix(0.998792 -0.0491469 0.050741 0.998712 103.428 63.9521)" fill="#1890FF"/>
  <rect opacity="0.3" width="7.29218" height="7.17691" transform="matrix(0.998995 -0.044816 0.0462703 0.998929 103.543 72.8821)" fill="#1890FF"/>
  <path d="M105.581 100.323L96.4156 103.812L83.0203 108.908C82.514 107.978 81.7687 106.721 80.8465 105.22C77.6735 100.046 72.4239 91.9979 67.7496 84.9249C62.4838 76.9523 57.9512 70.2248 57.9512 70.2248L61.2322 69.2946L88.0336 61.637L105.581 100.323Z" fill="#F4F6F8"/>
  <path opacity="0.1" d="M105.581 100.323L96.4155 103.812C91.2956 104.862 86.0709 105.334 80.8423 105.22C77.6694 100.046 72.4198 91.9979 67.7454 84.9249L61.2334 69.2893L88.0335 61.637L105.581 100.323Z" fill="black"/>
  <path d="M112.399 98.1516C112.399 98.1516 98.1614 106.44 76.9038 104.566L59.9575 63.9053L68.079 62.5314L96.155 57.7864L112.087 97.361L112.399 98.1516Z" fill="#1890FF"/>
  <path opacity="0.1" d="M112.082 97.3664C108.729 97.5285 104.85 97.5125 100.948 97.0541C96.7248 96.5651 92.477 95.5579 88.8356 93.7109C85.7909 92.1682 83.1877 90.49 80.918 88.4769C75.0136 83.2509 71.36 75.7753 68.079 62.5368L96.155 57.7917L112.082 97.3664Z" fill="#FF4842"/>
  <path d="M122.527 95.0929C122.527 95.0929 112.032 97.1153 101.349 95.8702C97.1258 95.3813 92.878 94.3741 89.2366 92.5271C86.1919 90.9844 83.59 89.3061 81.319 87.2931C74.0117 80.8233 70.1529 70.9081 66.1738 50.8849C66.1738 50.8849 83.6211 55.0293 100.874 45.9512C100.869 45.9578 106.684 81.6724 122.527 95.0929Z" fill="white"/>
  <path opacity="0.3" d="M75.1986 58.2355C75.1986 58.2355 89.3865 57.4462 93.348 54.4365L93.9488 56.3367C93.9488 56.3367 84.5744 60.4067 75.1986 60.4558V58.2355Z" fill="#1890FF"/>
  <path opacity="0.3" d="M75.1986 67.6165C75.1986 67.6165 88.9355 66.8763 99.3145 61.9426L99.6655 62.7319C99.6655 62.7319 91.4293 67.4636 75.1986 68.7021L75.1986 67.6165Z" fill="#1890FF"/>
  <path opacity="0.3" d="M76.3044 71.272C76.3044 71.272 90.0414 70.5319 100.419 65.5981L100.77 66.3874C100.77 66.3874 92.5338 71.1178 76.3044 72.3576L76.3044 71.272Z" fill="#1890FF"/>
  <path opacity="0.3" d="M77.4088 74.9326C77.4088 74.9326 91.1457 74.1925 101.525 69.2588L101.874 70.0481C101.874 70.0481 93.6382 74.7798 77.4088 76.0182L77.4088 74.9326Z" fill="#1890FF"/>
  <path opacity="0.3" d="M78.5148 78.5935C78.5148 78.5935 92.2517 77.8534 102.629 72.9197L102.98 73.709C102.98 73.709 94.7441 78.4407 78.5148 79.6791L78.5148 78.5935Z" fill="#1890FF"/>
  <path opacity="0.3" d="M79.6191 82.2556C79.6191 82.2556 93.356 81.5155 103.735 76.5818L104.085 77.3711C104.085 77.3711 95.8485 82.1015 79.6191 83.3412V82.2556Z" fill="#1890FF"/>
  <path d="M176.208 127.709C176.208 127.709 170.5 127.37 171.172 131.307C171.172 131.307 171.037 132.002 171.68 132.318C171.68 132.318 171.689 132.026 172.264 132.126C172.469 132.159 172.678 132.169 172.885 132.155C173.165 132.136 173.431 132.028 173.643 131.847C173.643 131.847 175.248 131.194 175.872 128.614C175.872 128.614 176.334 128.05 176.315 127.905L175.352 128.304C175.352 128.304 175.682 128.988 175.422 129.556C175.422 129.556 175.391 128.329 175.206 128.36C175.169 128.36 174.705 128.596 174.705 128.596C174.705 128.596 175.271 129.792 174.84 130.653C174.84 130.653 175.003 129.185 174.525 128.683L173.849 129.072C173.849 129.072 174.511 130.302 174.063 131.307C174.063 131.307 174.178 129.767 173.706 129.166L173.092 129.638C173.092 129.638 173.714 130.851 173.335 131.684C173.335 131.684 173.285 129.891 172.958 129.755C172.958 129.755 172.418 130.221 172.34 130.419C172.34 130.419 172.765 131.299 172.501 131.764C172.501 131.764 172.339 130.568 172.206 130.568C172.206 130.568 171.666 131.365 171.615 131.897C171.615 131.897 171.638 131.089 172.077 130.487C171.767 130.545 171.482 130.691 171.256 130.906C171.256 130.906 171.339 130.345 172.209 130.297C172.209 130.297 172.652 129.697 172.769 129.659C172.769 129.659 171.905 129.589 171.381 129.817C171.381 129.817 171.843 129.286 172.929 129.529L173.535 129.043C173.535 129.043 172.397 128.889 171.915 129.059C171.915 129.059 172.47 128.591 173.698 128.926L174.358 128.538C174.358 128.538 173.389 128.332 172.811 128.405C172.811 128.405 173.42 128.081 174.553 128.432L175.024 128.223C175.024 128.223 174.314 128.09 174.106 128.064C173.898 128.037 173.886 127.986 173.886 127.986C174.336 127.912 174.799 127.962 175.221 128.133C175.221 128.133 176.224 127.771 176.208 127.709Z" fill="#1890FF"/>
  <ellipse opacity="0.1" cx="172.276" cy="132.661" rx="4.03979" ry="0.672356" fill="#1890FF"/>
  <path d="M178.867 114.712C178.867 114.712 175.649 114.521 176.031 116.741C175.991 116.972 176.106 117.202 176.316 117.311C176.316 117.311 176.323 117.146 176.647 117.202C176.763 117.221 176.88 117.226 176.997 117.218C177.154 117.208 177.304 117.147 177.423 117.045C177.423 117.045 178.328 116.677 178.68 115.222C178.68 115.222 178.941 114.905 178.93 114.824L178.39 115.051C178.39 115.051 178.575 115.438 178.429 115.758C178.429 115.758 178.412 115.066 178.308 115.082C178.286 115.082 178.026 115.214 178.026 115.214C178.026 115.214 178.344 115.879 178.104 116.374C178.104 116.374 178.196 115.547 177.926 115.262L177.544 115.483C177.544 115.483 177.916 116.176 177.664 116.742C177.664 116.742 177.729 115.873 177.463 115.536L177.117 115.802C177.117 115.802 177.467 116.486 177.252 116.955C177.252 116.955 177.224 115.944 177.04 115.868C176.909 115.978 176.791 116.102 176.69 116.239C176.69 116.239 176.931 116.736 176.782 116.998C176.782 116.998 176.69 116.324 176.616 116.321C176.616 116.321 176.314 116.766 176.283 117.072C176.297 116.788 176.387 116.514 176.543 116.275C176.369 116.307 176.207 116.389 176.08 116.511C176.08 116.511 176.127 116.195 176.62 116.168C176.62 116.168 176.87 115.83 176.936 115.808C176.936 115.808 176.449 115.769 176.153 115.897C176.153 115.897 176.414 115.6 177.025 115.735L177.368 115.46C177.368 115.46 176.725 115.374 176.454 115.47C176.454 115.47 176.767 115.204 177.46 115.398L177.833 115.179C177.546 115.117 177.252 115.092 176.959 115.105C176.959 115.105 177.303 114.922 177.941 115.12L178.211 115.003C178.211 115.003 177.806 114.925 177.692 114.913C177.579 114.901 177.568 114.869 177.568 114.869C177.822 114.827 178.083 114.856 178.321 114.951C178.321 114.951 178.878 114.747 178.867 114.712Z" fill="#1890FF"/>
  <ellipse opacity="0.1" cx="176.653" cy="117.504" rx="2.27779" ry="0.3787" fill="#1890FF"/>
  <path d="M159.872 116.639C159.872 116.639 155.986 116.408 156.445 119.088C156.396 119.366 156.536 119.644 156.79 119.776C156.79 119.776 156.79 119.577 157.195 119.643C157.334 119.666 157.476 119.673 157.617 119.663C157.808 119.651 157.989 119.577 158.133 119.453C158.133 119.453 159.225 119.009 159.651 117.253C159.651 117.253 159.965 116.87 159.952 116.77L159.289 117.047C159.289 117.047 159.513 117.512 159.336 117.898C159.336 117.898 159.315 117.064 159.189 117.083C159.163 117.083 158.849 117.245 158.849 117.245C158.849 117.245 159.234 118.055 158.943 118.645C158.943 118.645 159.054 117.646 158.729 117.303L158.267 117.569C158.267 117.569 158.716 118.407 158.411 119.09C158.411 119.09 158.49 118.042 158.17 117.629L157.751 117.95C157.751 117.95 158.175 118.775 157.916 119.343C157.916 119.343 157.883 118.122 157.661 118.03C157.661 118.03 157.295 118.348 157.239 118.478C157.239 118.478 157.528 119.077 157.349 119.393C157.349 119.393 157.238 118.58 157.148 118.576C157.148 118.576 156.784 119.116 156.742 119.484C156.761 119.142 156.869 118.812 157.057 118.524C156.847 118.564 156.653 118.663 156.499 118.81C156.499 118.81 156.556 118.429 157.148 118.395C157.148 118.395 157.449 117.986 157.53 117.962C157.53 117.962 156.941 117.913 156.584 118.069C156.584 118.069 156.898 117.71 157.636 117.873L158.049 117.541C158.049 117.541 157.276 117.437 156.946 117.552C156.946 117.552 157.324 117.234 158.162 117.467L158.611 117.201C158.611 117.201 157.951 117.061 157.557 117.112C157.557 117.112 157.972 116.891 158.742 117.13L159.063 116.988C159.063 116.988 158.58 116.895 158.438 116.881C158.297 116.866 158.29 116.827 158.29 116.827C158.596 116.776 158.911 116.81 159.198 116.926C159.198 116.926 159.884 116.68 159.872 116.639Z" fill="#1890FF"/>
  <ellipse opacity="0.1" cx="157.196" cy="120.01" rx="2.75036" ry="0.457092" fill="#1890FF"/>
  <rect width="22.7133" height="41.1756" rx="5" transform="matrix(0.313683 -0.949528 0.952437 0.304734 126.108 55.5618)" fill="white"/>
  <g opacity="0.2">
  <ellipse cx="137.615" cy="46.0029" rx="4.23422" ry="4.16701" fill="#1890FF"/>
  </g>
  <g opacity="0.2">
  <rect width="1.14318" height="18.42" transform="matrix(0.313683 -0.949528 0.952437 0.304734 147.746 45.2529)" fill="#1890FF"/>
  </g>
  <g opacity="0.2">
  <rect width="1.14318" height="9.38323" transform="matrix(0.313683 -0.949528 0.952437 0.304734 146.832 48.0203)" fill="#1890FF"/>
  </g>
  <g opacity="0.2">
  <rect width="1.14318" height="15.1763" transform="matrix(0.313683 -0.949528 0.952437 0.304734 145.916 50.7896)" fill="#1890FF"/>
  </g>
  <g opacity="0.2">
  <rect width="1.14318" height="18.42" transform="matrix(0.313682 -0.949528 0.952437 0.304735 145.002 53.5579)" fill="#1890FF"/>
  </g>
  <g opacity="0.5">
  <rect width="2.21051" height="5.0974" transform="matrix(0.313682 -0.949528 0.952437 0.304735 156.036 62.6282)" fill="#1890FF"/>
  </g>
  <rect width="22.4617" height="35.2001" rx="4" transform="matrix(0.546885 -0.837207 0.845079 0.534642 122.51 94.9431)" fill="white"/>
  <rect width="6.35443" height="1.50536" transform="matrix(0.542388 -0.840128 0.847895 0.530164 126.918 93.6313)" fill="#DFE3E8"/>
  <rect width="13.9557" height="1.38036" transform="matrix(0.542388 -0.840128 0.847896 0.530163 130.997 94.7126)" fill="#DFE3E8"/>
  <rect width="13.9557" height="1.38036" transform="matrix(0.542388 -0.840128 0.847896 0.530163 133.498 96.2747)" fill="#DFE3E8"/>
  <rect width="13.9557" height="1.38036" transform="matrix(0.542388 -0.840128 0.847896 0.530163 135.997 97.8391)" fill="#DFE3E8"/>
  <rect width="13.9372" height="1.37832" transform="matrix(0.546885 -0.837207 0.845079 0.534642 138.584 100.106)" fill="#DFE3E8"/>
  <rect width="13.9557" height="1.38036" transform="matrix(0.542388 -0.840128 0.847896 0.530163 140.997 100.965)" fill="#F4F6F8"/>
  <rect width="13.9557" height="1.38036" transform="matrix(0.542388 -0.840128 0.847896 0.530163 143.497 102.527)" fill="#F4F6F8"/>
  <rect width="3.61375" height="3.63839" transform="matrix(0.542387 -0.840129 0.847895 0.530164 153.994 95.8665)" fill="#DFE3E8"/>
  <path d="M122.109 75.0045L101.44 75.2237C100.666 75.2317 100.043 75.8508 100.042 76.6123V78.2932C100.042 79.047 99.4308 79.663 98.6651 79.6817L83.7508 80.0338C83.1004 80.0499 82.5231 79.6262 82.3533 79.008L81.6526 76.4741C81.4845 75.8628 80.9175 75.4408 80.274 75.4483L60.3519 75.6595C59.9388 75.6635 59.5482 75.8455 59.2832 76.1574C59.0182 76.4693 58.9055 76.8798 58.9747 77.2806L66.9894 123.702C67.1043 124.369 67.6894 124.857 68.3761 124.86L131.314 125.126C131.736 125.127 132.136 124.943 132.406 124.623C132.675 124.304 132.785 123.883 132.706 123.475L123.509 76.1326C123.381 75.4727 122.791 74.9977 122.109 75.0045Z" fill="url(#paint1_linear_214_1237)"/>
  <ellipse opacity="0.1" cx="54.5096" cy="114.962" rx="2.18867" ry="0.296318" fill="#1890FF"/>
  <ellipse opacity="0.1" cx="46.1262" cy="115.798" rx="2.18867" ry="0.296314" fill="#1890FF"/>
  <ellipse opacity="0.1" cx="49.4815" cy="118.18" rx="1.55543" ry="0.209946" fill="#1890FF"/>
  <ellipse opacity="0.1" cx="40.7808" cy="117.97" rx="1.55543" ry="0.209946" fill="#1890FF"/>
  <path d="M46.0789 115.733C46.0789 115.733 49.1479 105.831 45.5982 101.864C42.9424 98.8971 39.9274 99.2519 38.5772 99.6186C37.8706 99.8044 37.2824 100.286 36.9678 100.935C36.4952 101.937 36.5803 103.564 39.9125 105.463C45.4902 108.641 45.8372 113.001 45.8372 113.001L46.0789 115.733Z" fill="#1890FF"/>
  <path d="M39.0593 101.023C39.0593 101.023 48.1056 103.813 46.0804 115.732" stroke="#04297A" stroke-width="0.5" stroke-linecap="round"/>
  <path d="M44.3438 102.021C44.3438 102.021 43.0976 102.847 43.4946 104.09" stroke="#04297A" stroke-width="0.5" stroke-linecap="round"/>
  <path d="M39.9667 102.757C39.9667 102.757 40.7282 101.994 41.6558 102.416" stroke="#04297A" stroke-width="0.5" stroke-linecap="round"/>
  <path d="M43.5431 106.592C43.5431 106.592 44.8811 105.927 45.2268 106.761" stroke="#04297A" stroke-width="0.5" stroke-linecap="round"/>
  <path d="M46.8525 107.983C46.8525 107.983 45.848 107.905 45.8304 108.382" stroke="#04297A" stroke-width="0.5" stroke-linecap="round"/>
  <path d="M46.2033 115.811C46.2033 115.811 42.6077 108.614 41.6207 108.768C41.1522 108.844 40.9361 109.3 40.8376 109.754C40.7164 110.344 40.7848 110.956 41.0334 111.506C41.5437 112.662 42.9142 114.847 46.2033 115.811Z" fill="#1890FF"/>
  <path d="M41.6475 110.137C41.6475 110.137 45.4199 115.521 46.149 115.758" stroke="#04297A" stroke-width="0.5" stroke-linecap="round"/>
  <path d="M41.3004 110.978H42.1807" stroke="#04297A" stroke-width="0.5" stroke-linecap="round"/>
  <path d="M42.3551 112.947L43.7364 113.006" stroke="#04297A" stroke-width="0.5" stroke-linecap="round"/>
  <path d="M43.1963 111.371L43.0464 112.08" stroke="#04297A" stroke-width="0.5" stroke-linecap="round"/>
  <path d="M44.664 113.525L44.637 114.169" stroke="#04297A" stroke-width="0.5" stroke-linecap="round"/>
  <path d="M46.0964 115.811C46.0964 115.811 49.6907 108.614 50.6777 108.768C51.1475 108.844 51.3636 109.3 51.4608 109.754C51.582 110.344 51.5135 110.956 51.265 111.506C50.7546 112.662 49.3828 114.847 46.0964 115.811Z" fill="#1890FF"/>
  <path d="M50.652 110.137C50.652 110.137 46.8714 115.521 46.149 115.758" stroke="#04297A" stroke-width="0.5" stroke-linecap="round"/>
  <path d="M50.9991 110.978H50.1188" stroke="#04297A" stroke-width="0.5" stroke-linecap="round"/>
  <path d="M49.9445 112.947L48.5632 113.006" stroke="#04297A" stroke-width="0.5" stroke-linecap="round"/>
  <path d="M49.1034 111.371L49.2533 112.08" stroke="#04297A" stroke-width="0.5" stroke-linecap="round"/>
  <path d="M47.6355 113.525L47.6626 114.169" stroke="#04297A" stroke-width="0.5" stroke-linecap="round"/>
  <path d="M39.9232 117.492C39.8254 117.413 39.7543 117.307 39.7194 117.188C39.6849 117.064 39.7451 116.934 39.8625 116.878C39.9975 116.829 40.1325 116.918 40.2405 117.011C40.3485 117.104 40.4714 117.202 40.6064 117.18C40.4607 117.05 40.395 116.854 40.4336 116.664C40.4391 116.625 40.4555 116.589 40.4809 116.559C40.5538 116.482 40.6861 116.515 40.7739 116.576C41.0439 116.768 41.129 117.138 41.1303 117.473C41.1438 117.35 41.1438 117.227 41.1303 117.104C41.1231 116.978 41.1797 116.857 41.2815 116.781C41.3473 116.746 41.4214 116.728 41.4962 116.73C41.6217 116.713 41.7489 116.749 41.8459 116.829C41.9405 116.955 41.9349 117.129 41.8324 117.25C41.729 117.364 41.6066 117.46 41.4706 117.534C41.3673 117.595 41.2792 117.679 41.2127 117.777C41.2045 117.791 41.1982 117.805 41.1938 117.82H40.408C40.232 117.733 40.069 117.622 39.9232 117.492Z" fill="#1890FF"/>
  <path d="M53.621 114.592C53.523 114.514 53.4518 114.409 53.4171 114.289C53.3825 114.166 53.4421 114.036 53.5589 113.98C53.6939 113.931 53.829 114.02 53.937 114.113C54.045 114.206 54.1665 114.307 54.3056 114.287C54.1598 114.157 54.0937 113.962 54.1314 113.772C54.1374 113.734 54.1542 113.697 54.18 113.668C54.2529 113.59 54.3852 113.624 54.473 113.683C54.7498 113.876 54.8281 114.247 54.8295 114.582C54.843 114.458 54.843 114.334 54.8295 114.211C54.8172 114.087 54.8677 113.965 54.9645 113.884C55.0305 113.85 55.1045 113.833 55.1792 113.835C55.3044 113.818 55.4313 113.853 55.5289 113.932C55.6237 114.059 55.6176 114.234 55.514 114.354C55.4113 114.469 55.2894 114.565 55.1535 114.639C55.0502 114.699 54.9621 114.782 54.8956 114.881C54.8877 114.895 54.8814 114.909 54.8767 114.925H54.1084C53.9312 114.836 53.7672 114.725 53.621 114.592Z" fill="#1890FF"/>
  <path d="M49.0561 117.492C48.9583 117.413 48.8868 117.307 48.8508 117.187C48.8164 117.064 48.8766 116.934 48.9939 116.878C49.129 116.829 49.264 116.918 49.372 117.011C49.48 117.104 49.6002 117.205 49.7406 117.186C49.595 117.056 49.529 116.861 49.5664 116.671C49.5724 116.632 49.5893 116.595 49.615 116.566C49.6879 116.489 49.8203 116.522 49.908 116.583C50.1848 116.774 50.2618 117.145 50.2645 117.48C50.278 117.357 50.278 117.233 50.2645 117.11C50.2539 116.985 50.3069 116.863 50.4063 116.784C50.4719 116.748 50.5461 116.731 50.6209 116.733C50.7464 116.716 50.8735 116.751 50.9706 116.831C51.0653 116.958 51.0592 117.132 50.9558 117.253C50.8528 117.367 50.7309 117.463 50.5953 117.537C50.492 117.598 50.4039 117.681 50.3374 117.78C50.3292 117.793 50.3229 117.808 50.3185 117.823H49.5354C49.3613 117.734 49.2002 117.623 49.0561 117.492Z" fill="#1890FF"/>
  <ellipse opacity="0.1" cx="38.6461" cy="38.6681" rx="2.92048" ry="2.87412" fill="#1890FF"/>
  <ellipse opacity="0.1" cx="179.079" cy="61.6358" rx="2.92048" ry="2.87412" fill="#1890FF"/>
  <ellipse opacity="0.1" cx="126.58" cy="29.5409" rx="2.92048" ry="2.87412" fill="#1890FF"/>
  <ellipse opacity="0.1" cx="44.487" cy="54.5243" rx="4.89447" ry="4.81678" fill="#1890FF"/>
  <path fill-rule="evenodd" clip-rule="evenodd" d="M93.5451 93.2937C89.9434 93.2937 87.0237 96.1671 87.0237 99.7116C87.0237 103.256 89.9434 106.13 93.5451 106.13C97.1468 106.13 100.067 103.256 100.067 99.7116C100.067 96.1671 97.1468 93.2937 93.5451 93.2937V93.2937Z" fill="#0C53B7"/>
  <path opacity="0.72" fill-rule="evenodd" clip-rule="evenodd" d="M93.5451 94.0403C96.7278 94.0403 99.3079 96.5794 99.3079 99.7117C99.3079 102.844 96.7278 105.383 93.5451 105.383C90.3623 105.383 87.7822 102.844 87.7822 99.7117C87.785 96.5806 90.3635 94.043 93.5451 94.0403Z" fill="#1890FF"/>
  <path fill-rule="evenodd" clip-rule="evenodd" d="M90.8485 100.18L90.5331 99.8776C90.4649 99.8163 90.4263 99.7306 90.4263 99.641C90.4263 99.5513 90.4649 99.4656 90.5331 99.4044L93.3 96.7447C93.3638 96.6792 93.453 96.6421 93.5463 96.6421C93.6397 96.6421 93.7289 96.6792 93.7927 96.7447L96.5596 99.402C96.6264 99.464 96.6642 99.5494 96.6642 99.6386C96.6642 99.7278 96.6264 99.8133 96.5596 99.8752L96.2442 100.178C96.1797 100.242 96.0908 100.279 95.9978 100.279C95.9049 100.279 95.816 100.242 95.7515 100.178L94.1155 98.5217V102.452C94.1161 102.539 94.0806 102.623 94.0168 102.685C93.9529 102.746 93.8661 102.781 93.7755 102.781H93.3197C93.1305 102.781 92.9772 102.634 92.9772 102.452V98.5265L91.3412 100.183C91.2764 100.247 91.1872 100.283 91.0943 100.282C91.0014 100.282 90.9127 100.245 90.8485 100.18Z" fill="#0C53B7"/>
  <defs>
  <linearGradient id="paint0_linear_214_1237" x1="-107.887" y1="80" x2="45.0081" y2="287.149" gradientUnits="userSpaceOnUse">
  <stop stop-color="#74CAFF"/>
  <stop offset="1" stop-color="#0C53B7"/>
  </linearGradient>
  <linearGradient id="paint1_linear_214_1237" x1="22.0664" y1="100.065" x2="68.6619" y2="168.652" gradientUnits="userSpaceOnUse">
  <stop stop-color="#74CAFF"/>
  <stop offset="1" stop-color="#0C53B7"/>
  </linearGradient>
  </defs>
  </svg>
  